<svg preserveAspectRatio="xMidYMid meet" width="812.359" height="570.162" overflow="visible" style="display: block;" viewBox="0 0 812.359 570.162" fill="none" xmlns="http://www.w3.org/2000/svg">
<path id="Union" d="M293.338 379.672C307.478 379.672 320.408 382.022 332.408 386.312C344.208 390.832 354.438 397.092 363.328 404.912C371.808 413.222 378.728 422.902 383.628 434.212C388.328 445.852 390.758 458.492 390.648 472.182C390.538 486.472 387.848 499.512 382.778 511.502C377.428 523.832 369.918 534.352 360.708 543.271H360.698C350.948 552.241 339.748 559.312 326.858 564.462C320.198 566.952 313.299 568.872 306.139 570.162H262.868C255.858 568.872 249.199 566.952 242.889 564.462C230.239 559.322 219.688 552.241 211.248 543.271C202.388 534.362 196.099 523.832 191.889 511.502C187.469 499.512 185.988 486.472 187.198 472.182C188.358 458.492 191.958 445.852 198.208 434.212C204.158 422.902 211.748 413.212 221.458 404.912C230.618 397.092 241.428 390.832 253.878 386.312C266.048 382.022 279.198 379.672 293.338 379.672ZM127.91 384.172C135.55 384.172 142.86 385.242 149.63 387.172C156.17 389.322 161.73 392.332 166.32 396.222L166.34 396.231C170.9 400.561 174.27 405.782 176.62 412.342C178.76 418.932 179.64 426.882 178.85 435.771C178.05 444.721 176.21 452.382 173.33 458.722C170.42 465.322 166.43 470.802 161.37 475.162C156.27 479.762 150.05 483.692 143 486.472C135.65 489.722 127.19 492.282 118.08 494.142L58.0098 507.021L50.0898 567.172H0L27.4199 384.172H127.91ZM456.828 567.16H406.738L407.118 384.16H453.889L456.828 567.16ZM595.469 492.04L588.1 384.16H634.859L650.689 567.16H600.6L523.709 451.24L528.6 567.16H478.499L474.119 384.16H520.879L595.469 492.04ZM812.359 421.57H754.649L773.76 567.16H723.67L707.21 421.57H649.5L646.1 384.16H806.62L812.359 421.57ZM291.599 416.932C283.629 416.932 276.498 418.252 269.979 420.892C263.199 423.762 257.498 427.522 252.628 432.412C247.738 437.312 243.698 443.132 240.958 449.882C237.748 456.662 236.089 464.162 235.559 472.162C234.999 480.672 235.659 488.312 238.009 495.292C239.889 502.542 243.268 508.662 247.668 513.852C252.088 519.071 257.528 523.112 264.248 525.972C270.728 529.072 278.258 530.512 286.338 530.512C294.418 530.512 302.078 529.082 309.088 525.972H309.068C315.818 523.112 321.638 519.062 326.538 513.852C331.418 508.652 335.128 502.542 338.148 495.292C340.678 488.312 342.289 480.672 342.509 472.162C342.719 464.162 341.528 456.662 339.408 449.882C336.838 443.132 333.558 437.312 329.128 432.412C324.708 427.522 319.358 423.762 313.078 420.892C306.568 418.252 299.568 416.932 291.599 416.932ZM63.5498 464.862L108.52 456.902C116.529 455.542 122.12 453.052 125.51 449.442C128.67 445.842 130.71 441.802 131.24 436.882C131.67 432.872 130.71 429.092 128.3 425.992C125.65 423.112 121.94 421.572 117.38 421.572H69.25L63.5498 464.862ZM570.62 206.859C585.42 206.859 598.659 209.549 609.989 214.779C621.399 220.199 632.04 228.229 641.939 238.909L618.63 257.789C613.33 250.529 607.09 244.789 599.92 240.539C592.6 236.309 583.82 234.199 573.58 234.199C567.18 234.199 561.399 235.329 556.409 237.279C551.229 239.389 547 242.16 543.55 245.76C539.91 249.53 537.199 253.819 535.449 258.779C533.509 263.939 532.889 269.449 533.199 275.159C533.519 281.069 534.75 286.499 537.29 291.619C539.46 296.759 542.74 301.239 546.93 305.039C550.96 309.029 555.899 312.17 561.729 314.26C567.199 316.53 573.36 317.579 580.21 317.579C585.53 317.579 590.44 317.049 594.899 315.829C598.989 314.779 602.83 313.04 606.43 310.77C609.65 308.68 612.81 305.899 615.55 302.789C618.1 299.679 620.41 296.24 622.67 292.3L650.069 312.859C642.509 324.079 633.429 332.57 622.52 338.8C611.35 344.89 597.549 348.129 581.159 348.129C569.199 348.129 558.079 346.15 547.649 342.56C537.05 338.81 527.95 333.64 520.37 327.26C512.45 320.74 506.41 313.04 501.88 304.01V303.989C497.2 295.209 494.779 285.639 494.399 275.149C494.019 264.929 495.72 255.629 499.63 247.069C503.34 238.739 508.52 231.599 515.54 225.479C522.17 219.72 530.27 215.09 539.859 211.76C549.249 208.6 559.43 206.859 570.62 206.859ZM311.919 210.203L301.509 235.813C300.639 237.953 301.339 240.393 303.209 241.743C304.059 242.363 305.079 242.693 306.139 242.693V242.703C307.319 242.703 308.469 242.273 309.369 241.513L326.939 226.623L367.139 344.553H327.089L314.319 305.233L264.659 317.604L252.759 344.553H212.709L273.969 210.203H311.919ZM124.979 304.012L179.769 210.191H218.278L205.389 344.552H165.338L173.238 275.342L133.948 344.552H105.259L84.6484 275.342L73.8682 344.552H33.8184L57.1885 210.191H95.6982L124.979 304.012ZM487.539 237.781H441.179L442.429 344.552H402.379L403.068 237.781H356.719L357.509 210.191H486.599L487.539 237.781ZM691.459 264.621L744.799 250.871L738.469 210.191H776.069L799.438 344.552H759.389L749.269 279.562L695.199 293.512L701.809 344.552H661.759L646.799 210.191H684.398L691.459 264.621ZM278.929 284.983L305.499 278.373L295.529 247.253L278.929 284.983ZM599.068 0C600.688 2.43607e-05 602.068 0.969839 602.378 2.30957L641.208 172.75H641.219C641.619 174.52 640.028 176.15 637.908 176.15H378.778L309.238 235.06C308.448 235.74 307.278 234.89 307.668 233.92L331.158 176.15H182.438C180.319 176.15 178.728 174.51 179.128 172.75L217.958 2.30957C218.268 0.969748 219.649 0 221.269 0H599.068ZM301.588 20.0898C292.218 20.0899 283.388 21.54 275.099 24.1699C266.589 26.9499 259.059 30.82 252.519 35.6699C245.549 40.8499 239.888 46.91 235.198 54.04C230.258 61.4199 227.008 69.4997 225.328 78.3096C223.558 87.5795 223.708 96.1098 225.958 104.01C228.048 112.2 231.729 119.23 237.309 125.22C242.629 131.28 249.559 136.08 258.099 139.59C266.559 142.95 276.109 144.81 286.769 144.81C297.428 144.81 307.429 142.95 316.849 139.59C326.058 136.08 334.129 131.28 341.219 125.22C347.889 119.23 353.399 112.19 357.438 104.01C361.238 96.1098 363.418 87.5795 363.858 78.3096C364.278 69.4998 362.948 61.4199 360.068 54.04C357.068 46.91 352.688 40.8399 347.258 35.6699C341.568 30.82 334.958 26.9499 327.258 24.1699C319.448 21.53 310.958 20.0898 301.588 20.0898ZM422.568 20.2305C416.318 20.2305 410.369 20.8903 404.849 22.0703C399.159 23.3903 394.208 25.2398 389.958 27.7598C385.538 30.4297 382.128 33.7897 379.578 37.8496C376.858 42.0896 375.458 47.06 375.238 52.9199C374.988 59.7098 376.348 65.16 379.338 69.5C382.188 73.89 386.039 77.5696 390.889 80.3896C395.599 83.3696 400.988 85.6203 407.048 87.2803C412.968 89.1003 418.748 90.7701 424.538 92.29C431.158 94.12 436.038 95.96 438.998 97.96C441.818 100.12 443.359 102.76 443.479 106.2C443.578 109.19 442.338 111.4 439.929 112.83C437.349 114.42 433.418 115.22 427.998 115.22C419.778 115.38 411.728 113.95 404.028 110.93C396.218 108.09 389.608 104.17 384.038 99.5098L368.729 126.04C376.678 131.78 385.588 136.42 395.278 139.76C404.858 143.12 415.338 144.81 426.668 144.81C434.448 144.81 441.698 143.97 448.398 142.28C454.908 140.6 460.518 138.09 465.208 134.76C469.708 131.45 473.288 127.18 475.628 122.3V122.31C477.948 117.48 478.878 111.74 478.418 105.12C477.948 98.2801 476.278 92.6098 473.408 88.0498C470.578 83.6799 466.858 79.9502 462.258 76.9902C457.688 74.1903 452.388 71.8398 446.488 69.7998C440.468 68.0498 433.998 66.1704 427.398 64.4404C423.008 63.4404 419.729 62.4297 417.229 61.4297C414.579 60.5697 412.549 59.58 411.309 58.5801C409.919 57.7301 408.989 56.5899 408.679 55.46C408.059 54.47 407.908 53.1998 407.908 51.7998C407.908 50.3999 408.378 49.2795 409.298 48.3096C410.068 47.4796 411.138 46.6402 412.668 45.9502C414.048 45.4002 415.728 44.99 417.708 44.71C419.538 44.57 421.528 44.5703 423.668 44.5703C430.088 44.8403 436.388 45.8101 442.418 47.75C448.318 49.7 453.978 52.5 459.088 55.8799L470.328 33.79C466.098 31.3701 462.068 29.3599 458.368 27.6299C454.398 26.0299 450.588 24.5796 446.798 23.3896C442.878 22.3297 438.978 21.5495 435.088 21.0195C431.058 20.4896 426.888 20.2305 422.568 20.2305ZM478.948 46.0898H517.668L528.639 141.43H563.719L549.508 46.0898H588.229L583.809 22.8701H477.238L478.948 46.0898ZM298.849 43.1904C304.038 43.1905 308.828 44.0101 313.088 45.6699C317.188 47.4699 320.648 49.8399 323.438 52.9199H323.429C326.239 56.0198 328.248 59.71 329.748 64.0098C330.948 68.3397 331.498 73.1497 331.078 78.3096C330.628 83.8296 329.258 88.8004 327.278 93.3604C324.948 98.1202 322.168 102.15 318.608 105.58C315.028 109.04 310.838 111.72 306.059 113.63C301.079 115.7 295.868 116.66 290.108 116.66C284.348 116.66 279.378 115.7 275.048 113.63C270.558 111.73 267.008 109.04 264.248 105.58C261.508 102.15 259.519 98.1201 258.639 93.3604C257.419 88.7904 257.398 83.8196 258.258 78.3096C259.068 73.1597 260.598 68.3397 263.148 64.0098C265.358 59.7099 268.389 56.0199 271.938 52.9199C275.468 49.84 279.478 47.4699 284.168 45.6699C288.668 44.0199 293.659 43.1904 298.849 43.1904Z" fill="url(#paint0_linear_0_19)"/>
<defs>
<linearGradient id="paint0_linear_0_19" x1="0" y1="0" x2="536.208" y2="763.982" gradientUnits="userSpaceOnUse">
<stop stop-color="#FFF0F9"/>
<stop offset="0.25" stop-color="#D9D9D9"/>
<stop offset="0.5" stop-color="white"/>
<stop offset="0.774038" stop-color="#ECECEC"/>
<stop offset="1" stop-color="#FAF5FF"/>
</linearGradient>
</defs>
</svg>
